<svg width="280" height="280" viewBox="0 0 280 280" fill="none" xmlns="http://www.w3.org/2000/svg">
<g clip-path="url(#clip0_3749_15897)">
<path d="M67.3719 67.5714C66.2805 67.5714 65.3875 67.5714 64.4945 67.5714C50.8021 67.5714 37.0105 67.373 23.318 67.5714C9.22874 67.7698 -0.594077 56.4588 0.00124509 44.1555C0.298906 36.8132 0.00124508 29.4709 0.100465 22.1286C0.199686 9.82533 9.62562 0.200979 21.8297 0.101759C29.8666 0.00253873 37.9034 0.00253873 45.9403 0.101759C57.6483 0.200979 67.3719 9.62689 67.4711 21.3349C67.6696 36.3171 67.5703 51.2001 67.5703 66.1823C67.5703 66.48 67.4711 66.7776 67.3719 67.5714ZM38.9949 57.8478C44.5512 57.8478 50.1076 57.7486 55.5647 57.8478C57.4499 57.8478 57.946 57.3517 57.946 55.4666C57.8467 44.7508 57.946 33.9358 57.8467 23.22C57.7475 15.1832 51.9927 9.52767 43.9559 9.52767C37.1097 9.42845 30.2635 9.42845 23.4173 9.52767C15.2812 9.62689 9.52641 15.3817 9.52641 23.5177C9.52641 30.2647 9.52641 37.1108 9.52641 43.8578C9.52641 51.9939 15.2812 57.7486 23.318 57.8478C28.5767 57.9471 33.8354 57.8478 38.9949 57.8478Z" fill="black"/>
<path d="M279.803 67.5698C278.81 67.5698 277.917 67.5698 277.124 67.5698C263.332 67.5698 249.54 67.5698 235.749 67.5698C221.957 67.5698 212.531 58.1439 212.531 44.3523C212.531 37.0101 212.531 29.6678 212.531 22.3255C212.531 9.92298 222.156 0.298635 234.459 0.199415C242.397 0.100195 250.334 0.100195 258.272 0.199415C270.079 0.298635 279.803 9.62532 280.001 21.3333C280.299 36.3155 280.1 51.2977 280.1 66.1808C280.001 66.4784 279.902 66.8753 279.803 67.5698ZM270.278 57.7471C270.377 57.0525 270.476 56.5564 270.476 56.0603C270.476 45.0469 270.575 34.1327 270.476 23.1192C270.377 15.1816 264.523 9.5261 256.486 9.5261C249.838 9.5261 243.091 9.5261 236.443 9.5261C227.811 9.5261 222.156 15.1816 222.156 23.8138C222.156 30.3623 222.156 36.9108 222.156 43.3601C222.156 52.3892 227.613 57.8463 236.642 57.8463C246.961 57.8463 257.28 57.8463 267.599 57.8463C268.392 57.9455 269.285 57.8463 270.278 57.7471Z" fill="black"/>
<path d="M67.3719 280.002C66.3797 280.002 65.4867 280.002 64.5937 280.002C50.9013 280.002 37.1096 279.803 23.4172 280.002C9.42714 280.2 -0.494899 269.087 0.00120302 256.586C0.298864 249.243 0.00120302 241.901 0.100423 234.559C0.199644 222.057 9.82402 212.532 22.3258 212.433C30.1642 212.433 38.0026 212.334 45.841 212.433C57.549 212.532 67.2726 221.958 67.4711 233.666C67.6695 248.747 67.5703 263.73 67.4711 278.811C67.5703 279.009 67.4711 279.307 67.3719 280.002ZM58.0451 251.525C58.0451 246.366 58.0451 241.107 58.0451 235.948C57.9459 227.812 52.2904 222.057 44.0551 222.057C37.3081 222.057 30.4619 222.057 23.7149 222.057C15.2811 222.057 9.62558 227.812 9.52636 236.246C9.52636 242.794 9.52636 249.343 9.52636 255.792C9.52636 264.722 15.1819 270.377 24.1118 270.377C34.6291 270.377 45.1465 270.377 55.5646 270.477C57.6483 270.477 58.0451 269.782 58.0451 267.897C57.9459 262.44 58.0451 256.983 58.0451 251.525Z" fill="black"/>
<path d="M212.432 232.377C220.072 232.377 227.811 232.377 235.451 232.377C238.825 232.377 240.71 233.964 240.71 236.643C240.611 239.223 238.825 240.711 235.55 240.711C220.072 240.711 204.693 240.711 189.215 240.711C186.039 240.711 184.154 239.124 184.154 236.544C184.154 233.964 185.94 232.377 189.215 232.377C196.954 232.377 204.693 232.377 212.432 232.377Z" fill="black"/>
<path d="M139.605 119.562C142.185 119.662 143.871 120.555 144.566 122.738C145.26 124.92 144.367 126.706 142.482 127.798C131.667 133.652 120.852 139.506 110.037 145.26C107.557 146.65 104.58 145.558 103.489 143.276C102.397 140.994 103.191 138.811 105.87 137.323C116.288 131.667 126.805 126.012 137.223 120.356C138.017 119.959 139.009 119.761 139.605 119.562Z" fill="black"/>
<path d="M174.828 139.902C174.332 140.497 173.637 142.085 172.447 142.779C161.731 148.732 151.015 154.487 140.2 160.242C137.62 161.631 134.842 160.738 133.552 158.456C132.262 156.174 133.155 153.892 135.934 152.304C146.352 146.649 156.869 140.993 167.287 135.338C170.958 133.353 174.828 135.338 174.828 139.902Z" fill="black"/>
<path d="M236.443 115.198C230.292 115.198 224.239 115.198 218.088 115.198C215.012 115.198 213.027 113.511 213.027 111.031C213.027 108.55 215.012 106.863 218.088 106.863C230.391 106.863 242.694 106.863 254.998 106.863C258.073 106.863 259.859 108.451 259.959 110.931C260.058 113.412 258.073 115.198 254.998 115.198C248.846 115.198 242.694 115.198 236.443 115.198Z" fill="black"/>
<path d="M216.997 202.016C210.944 202.016 204.892 202.016 198.939 202.016C195.764 202.016 193.879 200.429 193.779 197.948C193.779 195.468 195.764 193.682 198.84 193.682C211.143 193.682 223.446 193.682 235.75 193.682C238.825 193.682 240.81 195.468 240.711 197.948C240.611 200.528 238.825 202.016 235.551 202.016C229.399 202.115 223.149 202.115 216.997 202.016Z" fill="black"/>
<path d="M217.195 87.5156C223.248 87.5156 229.3 87.5156 235.254 87.5156C238.726 87.5156 240.611 89.0039 240.611 91.6829C240.611 94.3618 238.726 95.9493 235.353 95.9493C223.248 95.9493 211.044 95.9493 198.939 95.9493C195.665 95.9493 193.581 94.2626 193.68 91.6829C193.68 89.1032 195.665 87.6149 199.038 87.6149C205.19 87.5156 211.242 87.5156 217.195 87.5156Z" fill="black"/>
<path d="M108.052 161.533C105.175 161.434 103.587 160.243 102.992 157.961C102.397 155.58 103.786 153.992 105.671 153C113.906 148.535 122.042 144.169 130.278 139.704C131.468 139.109 132.56 138.415 133.75 137.918C136.33 136.827 139.009 137.918 140.001 140.201C140.993 142.383 140.2 144.566 137.62 145.955C128.591 150.916 119.463 155.778 110.434 160.64C109.64 161.037 108.548 161.334 108.052 161.533Z" fill="black"/>
<path d="M171.951 117.676C174.53 117.973 176.217 118.866 176.812 121.049C177.408 123.133 176.713 124.919 174.828 125.911C166.097 130.674 157.266 135.436 148.435 140.1C145.856 141.389 142.978 140.298 141.887 138.016C140.795 135.734 141.688 133.551 144.467 132.162C152.702 127.697 161.036 123.232 169.371 118.767C170.165 118.172 171.256 117.973 171.951 117.676Z" fill="black"/>
<path d="M221.859 251.623C226.522 251.623 231.086 251.623 235.75 251.623C238.726 251.623 240.611 253.211 240.711 255.691C240.81 258.271 238.825 259.958 235.75 260.057C226.621 260.057 217.394 260.057 208.265 260.057C205.289 260.057 203.503 258.37 203.503 255.889C203.503 253.31 205.289 251.722 208.265 251.722C212.83 251.623 217.394 251.623 221.859 251.623Z" fill="black"/>
<path d="M231.681 279.404C227.216 279.404 222.751 279.404 218.286 279.404C215.012 279.404 212.929 277.618 213.028 275.039C213.127 272.558 215.012 270.971 218.187 270.971C227.216 270.971 236.245 270.971 245.175 270.971C248.35 270.971 250.235 272.459 250.235 275.138C250.235 277.718 248.35 279.404 245.175 279.404C240.81 279.404 236.245 279.404 231.681 279.404Z" fill="black"/>
<path d="M250.931 221.364C246.366 221.364 241.802 221.364 237.337 221.364C234.46 221.364 232.476 219.677 232.476 217.296C232.476 214.716 234.46 213.029 237.437 213.029C246.565 213.029 255.594 213.029 264.722 213.029C267.897 213.029 269.683 214.617 269.683 217.296C269.683 219.975 267.897 221.463 264.623 221.463C259.96 221.364 255.495 221.364 250.931 221.364Z" fill="black"/>
<path d="M222.355 145.46C226.82 145.46 231.285 145.46 235.75 145.46C238.825 145.46 240.611 147.048 240.711 149.528C240.81 152.108 238.925 153.795 235.75 153.795C226.621 153.795 217.394 153.795 208.265 153.795C205.289 153.795 203.503 152.108 203.503 149.627C203.503 147.048 205.289 145.46 208.265 145.46C213.028 145.361 217.691 145.46 222.355 145.46Z" fill="black"/>
<path d="M38.6966 106.861C43.2607 106.861 47.8249 106.861 52.2898 106.861C55.3656 106.861 57.1516 108.349 57.1516 110.929C57.1516 113.509 55.3656 115.195 52.1906 115.195C43.0623 115.195 34.0332 115.195 24.905 115.195C21.8291 115.195 19.8447 113.509 19.8447 110.929C19.8447 108.448 21.8291 106.861 25.0042 106.762C29.6675 106.861 34.2317 106.861 38.6966 106.861Z" fill="black"/>
<path d="M116.09 0.597656C120.654 0.597656 125.218 0.597656 129.683 0.597656C132.56 0.597656 134.545 2.2844 134.545 4.7649C134.545 7.2454 132.659 8.93214 129.683 8.93214C120.555 8.93214 111.327 8.93214 102.199 8.93214C99.0237 8.93214 97.2377 7.34462 97.3369 4.56646C97.4362 2.08596 99.1229 0.597656 102.199 0.597656C106.862 0.597656 111.426 0.597656 116.09 0.597656Z" fill="black"/>
<path d="M124.027 121.747C121.249 121.747 119.463 120.655 118.867 118.472C118.272 116.29 119.165 114.603 121.15 113.511C127.4 110.138 133.552 106.764 139.902 103.391C142.482 102.002 145.26 102.895 146.55 105.276C147.741 107.558 146.947 109.84 144.069 111.329C138.116 114.603 132.163 117.778 126.21 120.953C125.317 121.449 124.424 121.647 124.027 121.747Z" fill="black"/>
<path d="M155.183 157.961C157.564 158.159 159.251 159.052 159.945 161.235C160.64 163.319 159.846 165.105 158.06 166.097C151.611 169.669 145.261 173.142 138.712 176.515C136.232 177.805 133.453 176.614 132.362 174.332C131.37 172.149 132.064 169.867 134.545 168.577C140.597 165.204 146.749 162.029 152.801 158.755C153.595 158.259 154.587 158.159 155.183 157.961Z" fill="black"/>
<path d="M265.417 153.793C262.44 153.793 259.463 153.793 256.487 153.793C253.51 153.793 251.625 152.107 251.625 149.626C251.625 147.146 253.51 145.459 256.487 145.459C262.539 145.459 268.592 145.459 274.545 145.459C277.422 145.459 279.307 147.245 279.208 149.725C279.109 152.107 277.224 153.694 274.446 153.793C271.568 153.893 268.492 153.793 265.417 153.793Z" fill="black"/>
<path d="M14.5864 145.46C17.563 145.46 20.5396 145.46 23.5162 145.46C26.4929 145.559 28.378 147.147 28.2788 149.627C28.2788 152.108 26.3936 153.795 23.417 153.795C17.4638 153.795 11.5106 153.795 5.55735 153.795C2.58074 153.795 0.695551 152.207 0.596331 149.727C0.49711 147.147 2.48152 145.46 5.55735 145.46C8.63318 145.361 11.6098 145.46 14.5864 145.46Z" fill="black"/>
<path d="M207.373 250.335C204.297 250.335 201.221 250.335 198.244 250.335C195.665 250.335 193.879 248.648 193.779 246.366C193.68 244.084 195.466 242.099 197.947 242C204.396 241.901 210.845 241.901 217.295 242C219.775 242 221.561 244.084 221.363 246.366C221.263 248.648 219.577 250.235 217.096 250.235C213.822 250.335 210.647 250.335 207.373 250.335Z" fill="black"/>
<path d="M159.35 250.335C156.175 250.335 153.099 250.335 149.924 250.335C147.245 250.335 145.558 248.648 145.459 246.366C145.36 244.084 147.146 242.1 149.626 242.1C156.076 242.001 162.525 242.001 168.974 242.1C171.356 242.1 173.141 244.183 173.042 246.267C173.042 248.549 171.256 250.335 168.677 250.335C165.7 250.335 162.525 250.335 159.35 250.335Z" fill="black"/>
<path d="M188.322 76.6003C185.246 76.6003 182.17 76.6003 179.194 76.6003C176.415 76.6003 174.53 74.8143 174.53 72.5323C174.53 70.151 176.415 68.365 179.094 68.2658C185.246 68.1666 191.497 68.1666 197.649 68.2658C200.427 68.2658 202.213 70.0518 202.114 72.5323C202.114 74.9136 200.328 76.6003 197.45 76.6003C194.374 76.6003 191.299 76.6003 188.322 76.6003Z" fill="black"/>
<path d="M168.775 251.623C171.95 251.623 175.026 251.623 178.201 251.623C180.979 251.722 182.765 253.31 182.666 255.79C182.666 258.172 180.88 259.958 178.102 259.958C171.95 260.057 165.898 260.057 159.746 259.958C156.968 259.958 155.083 258.271 155.083 255.889C154.983 253.409 156.968 251.623 159.845 251.623C162.822 251.623 165.798 251.623 168.775 251.623Z" fill="black"/>
<path d="M91.6817 57.2507C88.6058 57.2507 85.53 57.2507 82.5534 57.2507C79.7752 57.2507 77.9893 55.564 77.9893 53.0835C77.9893 50.7022 79.7752 48.9162 82.5534 48.9162C88.7051 48.817 94.7575 48.817 100.909 48.9162C103.886 48.9162 105.672 50.603 105.573 53.1827C105.473 55.6632 103.787 57.1515 100.909 57.2507C97.7341 57.2507 94.7575 57.2507 91.6817 57.2507Z" fill="black"/>
<path d="M62.8077 163.417C59.7318 163.417 56.656 163.417 53.6794 163.417C50.9012 163.417 49.016 161.829 48.9168 159.448C48.8176 157.067 50.7028 155.181 53.6794 155.082C59.8311 154.983 65.8835 154.983 72.0352 155.082C74.8133 155.082 76.5993 156.868 76.5993 159.249C76.5993 161.829 74.8134 163.417 71.8367 163.417C68.7609 163.417 65.7843 163.417 62.8077 163.417Z" fill="black"/>
<path d="M72.333 144.071C69.2572 144.071 66.1814 144.071 63.2048 144.071C60.4266 144.071 58.6406 142.385 58.6406 140.003C58.6406 137.622 60.2282 135.935 62.9071 135.836C69.2572 135.737 75.6073 135.737 81.9574 135.836C84.6364 135.836 86.2239 137.622 86.1247 140.103C86.0255 142.484 84.3387 144.071 81.759 144.071C78.5839 144.171 75.5081 144.071 72.333 144.071Z" fill="black"/>
<path d="M265.814 77.8906C268.889 77.8906 271.965 77.8906 274.942 77.8906C277.621 77.9898 279.307 79.5774 279.307 81.9586C279.307 84.2407 277.621 86.1259 274.942 86.1259C268.592 86.2251 262.242 86.2251 255.891 86.1259C253.312 86.1259 251.625 84.2407 251.625 81.8594C251.724 79.5774 253.411 77.8906 256.09 77.8906C259.364 77.8906 262.539 77.8906 265.814 77.8906Z" fill="black"/>
<path d="M33.9354 77.8906C37.0112 77.8906 40.0871 77.8906 43.0637 77.8906C45.8418 77.8906 47.6278 79.6766 47.6278 82.0579C47.6278 84.3399 45.8418 86.1259 43.1629 86.1259C36.912 86.2251 30.5619 86.2251 24.311 86.1259C21.6321 86.1259 19.9453 84.3399 19.9453 82.0579C19.9453 79.6766 21.7313 77.8906 24.5095 77.8906C27.6845 77.8906 30.7603 77.8906 33.9354 77.8906Z" fill="black"/>
<path d="M188.223 211.64C185.048 211.64 181.972 211.64 178.797 211.64C176.118 211.541 174.432 209.953 174.432 207.572C174.432 205.29 176.118 203.404 178.698 203.404C185.048 203.305 191.398 203.305 197.748 203.404C200.328 203.404 202.015 205.29 202.015 207.572C202.015 209.953 200.328 211.541 197.649 211.541C194.573 211.739 191.398 211.64 188.223 211.64Z" fill="black"/>
<path d="M52.985 105.474C49.9092 105.474 46.8334 105.474 43.8568 105.474C41.1778 105.375 39.4911 103.886 39.3918 101.505C39.2926 99.0244 40.9794 97.2385 43.7575 97.2385C50.0084 97.1393 56.2593 97.1393 62.6094 97.2385C65.1891 97.2385 66.9751 99.0244 66.9751 101.306C66.9751 103.688 65.1892 105.375 62.411 105.474C59.2359 105.474 56.0609 105.474 52.985 105.474Z" fill="black"/>
<path d="M149.725 211.64C146.55 211.64 143.474 211.64 140.299 211.64C137.521 211.64 135.934 210.151 135.834 207.671C135.735 205.091 137.323 203.404 140.2 203.404C146.451 203.305 152.702 203.305 159.052 203.404C161.83 203.404 163.517 205.29 163.418 207.77C163.319 210.151 161.632 211.64 158.953 211.64C155.877 211.739 152.801 211.64 149.725 211.64Z" fill="black"/>
<path d="M217.195 86.2235C214.12 86.2235 211.044 86.3228 208.067 86.2235C205.19 86.1243 203.503 84.5368 203.503 82.0563C203.503 79.5758 205.19 77.9883 208.067 77.9883C214.219 77.9883 220.47 77.9883 226.621 77.9883C229.3 77.9883 230.987 79.5758 231.086 81.9571C231.185 84.3384 229.399 86.1243 226.621 86.2235C223.446 86.2235 220.271 86.2235 217.195 86.2235Z" fill="black"/>
<path d="M86.9177 260.057C85.4294 260.057 83.9411 260.057 82.4528 260.057C79.6746 259.958 77.8887 258.271 77.8887 255.89C77.8887 253.41 79.6746 251.723 82.3536 251.723C85.3302 251.624 88.3068 251.624 91.2834 251.723C94.0616 251.822 95.8476 253.509 95.8476 255.89C95.8476 258.271 94.0616 259.958 91.2834 260.157C89.8943 260.057 88.406 260.057 86.9177 260.057Z" fill="black"/>
<path d="M173.736 37.9045C172.049 37.9045 170.462 38.0037 168.775 37.9045C166.493 37.8053 164.905 36.1186 164.806 34.0349C164.707 31.7529 166.294 29.7685 168.577 29.6693C171.95 29.4708 175.324 29.57 178.697 29.6693C181.078 29.7685 182.666 31.5544 182.666 33.8365C182.666 36.1186 181.078 37.8053 178.598 37.9045C177.01 38.0037 175.423 37.9045 173.736 37.9045Z" fill="black"/>
<path d="M135.338 29.5695C136.925 29.5695 138.513 29.4703 140.001 29.5695C142.482 29.6687 144.168 31.5539 144.069 33.9352C143.97 36.2172 142.482 37.8048 139.902 37.904C136.727 38.0032 133.453 38.0032 130.278 37.904C127.896 37.8048 126.21 36.118 126.11 33.836C126.011 31.5539 127.797 29.6687 130.278 29.5695C132.064 29.4703 133.651 29.5695 135.338 29.5695Z" fill="black"/>
<path d="M270.376 95.8484C268.789 95.8484 267.201 95.9476 265.713 95.8484C263.133 95.7491 261.446 94.0624 261.446 91.6811C261.446 89.2998 263.133 87.5139 265.614 87.5139C268.689 87.4146 271.864 87.4146 274.94 87.5139C277.52 87.6131 279.306 89.2998 279.306 91.5819C279.306 93.9632 277.421 95.7491 274.841 95.8484C273.353 95.9476 271.864 95.8484 270.376 95.8484Z" fill="black"/>
<path d="M173.835 270.974C175.423 270.974 177.01 270.875 178.499 270.974C180.88 271.073 182.467 272.561 182.666 274.645C182.864 276.927 181.475 279.011 179.094 279.209C175.522 279.407 171.851 279.407 168.279 279.209C165.997 279.011 164.707 277.026 164.806 274.843C165.005 272.661 166.493 271.172 168.874 270.974C169.073 270.974 169.172 270.974 169.37 270.974C170.859 270.974 172.347 270.974 173.835 270.974Z" fill="black"/>
<path d="M260.852 251.624C262.44 251.624 264.027 251.525 265.515 251.624C267.897 251.723 269.484 253.311 269.583 255.395C269.683 257.776 268.294 259.76 265.912 259.859C262.34 260.058 258.868 260.058 255.296 259.859C253.113 259.76 251.525 257.677 251.625 255.593C251.724 253.509 253.41 251.823 255.593 251.624C255.792 251.624 255.891 251.624 256.089 251.624C257.677 251.624 259.264 251.624 260.852 251.624Z" fill="black"/>
<path d="M135.239 260.057C133.651 260.057 132.064 260.157 130.576 260.057C127.996 259.958 126.309 258.172 126.21 255.89C126.21 253.509 128.095 251.723 130.774 251.723C133.85 251.624 136.827 251.624 139.902 251.723C142.482 251.822 144.169 253.509 144.169 255.89C144.169 258.271 142.581 259.958 139.902 260.157C138.315 260.057 136.827 260.057 135.239 260.057Z" fill="black"/>
<path d="M144.764 269.582C143.077 269.582 141.489 269.681 139.803 269.582C137.521 269.483 136.132 267.895 135.933 265.811C135.834 263.529 137.124 261.644 139.406 261.446C142.978 261.247 146.649 261.247 150.32 261.446C152.404 261.545 153.892 263.529 153.892 265.514C153.892 267.597 152.205 269.383 150.022 269.582C148.236 269.681 146.45 269.582 144.764 269.582Z" fill="black"/>
<path d="M164.211 18.556C162.524 18.556 160.936 18.6552 159.25 18.556C156.769 18.3575 155.182 16.6708 155.182 14.4879C155.182 12.4043 156.769 10.5191 159.051 10.3207C162.524 10.1223 165.997 10.1223 169.469 10.3207C171.652 10.4199 173.339 12.5035 173.24 14.4879C173.141 16.5716 171.553 18.3575 169.271 18.4567C167.584 18.6552 165.897 18.556 164.211 18.556Z" fill="black"/>
<path d="M270.376 202.015C268.689 202.015 267.102 202.114 265.415 202.015C263.133 201.817 261.546 200.229 261.446 198.046C261.347 195.863 262.736 193.879 265.118 193.78C268.689 193.581 272.261 193.581 275.734 193.78C278.016 193.879 279.505 195.963 279.405 198.046C279.306 200.13 277.619 201.817 275.337 202.015C273.65 202.114 271.964 202.015 270.376 202.015Z" fill="black"/>
<path d="M241.305 250.234C239.618 250.234 238.031 250.333 236.344 250.234C234.062 250.135 232.474 248.448 232.375 246.364C232.276 244.38 233.665 242.296 235.749 242.098C239.519 241.9 243.289 241.8 247.06 242.098C249.243 242.296 250.632 244.479 250.235 246.662C249.838 248.944 248.548 250.135 246.266 250.234C244.579 250.333 242.992 250.333 241.305 250.234Z" fill="black"/>
<path d="M106.068 279.405C104.48 279.405 102.893 279.504 101.404 279.405C98.8247 279.207 97.2372 277.421 97.3364 275.039C97.4356 272.658 99.0232 271.071 101.702 271.071C104.778 270.971 107.755 270.971 110.83 271.071C113.41 271.17 115.196 272.757 115.196 275.139C115.295 277.421 113.609 279.207 111.029 279.504C110.83 279.504 110.731 279.504 110.533 279.504C109.044 279.405 107.556 279.405 106.068 279.405Z" fill="black"/>
<path d="M173.736 269.582C172.05 269.582 170.462 269.681 168.775 269.582C166.493 269.483 164.906 267.796 164.807 265.613C164.807 263.331 166.196 261.545 168.478 261.446C171.951 261.247 175.423 261.247 178.896 261.446C181.376 261.545 182.865 263.43 182.666 265.811C182.567 267.994 180.98 269.582 178.598 269.681C177.011 269.681 175.423 269.582 173.736 269.582Z" fill="black"/>
<path d="M125.614 250.336C123.928 250.336 122.34 250.435 120.653 250.336C118.272 250.236 116.684 248.748 116.585 246.565C116.387 244.382 117.776 242.299 119.959 242.2C123.63 242.001 127.4 242.001 131.071 242.2C133.254 242.398 134.743 244.482 134.445 246.665C134.246 248.748 132.56 250.236 130.278 250.435C130.079 250.435 129.98 250.435 129.782 250.435C128.392 250.336 127.003 250.336 125.614 250.336Z" fill="black"/>
<path d="M38.4986 144.07C36.8118 144.07 35.2243 144.169 33.5376 144.07C31.2555 143.971 29.668 142.185 29.668 140.002C29.668 137.918 31.0571 136.033 33.2399 135.934C36.8118 135.736 40.483 135.736 44.1541 135.934C46.337 136.033 47.7261 138.018 47.6269 140.002C47.5276 142.185 45.9401 143.872 43.658 143.971C41.9713 144.169 40.1853 144.07 38.4986 144.07Z" fill="black"/>
<path d="M86.8197 19.9464C88.5064 19.9464 90.0939 19.8472 91.7807 19.9464C94.162 20.0457 95.8487 21.8316 95.8487 24.1137C95.8487 26.2965 94.2612 28.0825 91.9791 28.1817C88.6056 28.3801 85.2321 28.3801 81.8586 28.1817C79.3781 28.0825 77.8898 26.1973 77.989 23.9152C78.0883 21.6332 79.6758 20.0457 82.1563 19.9464C83.7438 19.8472 85.3314 19.9464 86.8197 19.9464Z" fill="black"/>
<path d="M86.7193 240.71C85.231 240.71 83.7427 240.809 82.2544 240.71C79.5754 240.61 77.8887 238.924 77.8887 236.542C77.8887 234.161 79.5754 232.474 82.1552 232.375C85.3302 232.276 88.406 232.276 91.5811 232.375C94.0616 232.474 95.7483 234.161 95.7483 236.344C95.8476 238.725 94.1608 240.511 91.5811 240.61C90.0928 240.809 88.406 240.71 86.7193 240.71Z" fill="black"/>
<path d="M86.7208 250.336C85.1332 250.336 83.5457 250.435 82.0574 250.336C79.7753 250.236 78.0886 248.649 77.9894 246.565C77.8901 244.382 79.2792 242.299 81.4621 242.2C85.034 242.001 88.7052 242.001 92.2771 242.2C94.6584 242.299 96.0475 244.482 95.849 246.764C95.6506 248.847 94.0631 250.336 91.6818 250.435C89.995 250.336 88.4075 250.336 86.7208 250.336Z" fill="black"/>
<path d="M154.388 76.5013C152.702 76.5013 151.114 76.6005 149.427 76.5013C147.145 76.3028 145.558 74.6161 145.459 72.4333C145.359 70.3496 146.947 68.3652 149.229 68.266C152.702 68.0676 156.174 68.0676 159.647 68.266C161.929 68.3652 163.417 70.2504 163.417 72.4333C163.417 74.6161 161.83 76.3028 159.548 76.6005C159.349 76.6005 159.25 76.6005 159.052 76.6005C157.563 76.5013 155.976 76.5013 154.388 76.5013Z" fill="black"/>
<path d="M29.0735 202.015C27.3867 202.015 25.7992 202.114 24.1125 202.015C21.8304 201.916 20.1437 200.229 20.0444 198.145C19.9452 195.963 21.5327 193.879 23.914 193.78C27.2875 193.581 30.661 193.581 34.0345 193.78C36.515 193.879 38.0033 195.764 38.0033 198.046C37.9041 200.328 36.3166 201.916 33.8361 202.114C32.1493 202.114 30.5618 202.015 29.0735 202.015Z" fill="black"/>
<path d="M125.416 202.015C123.829 202.015 122.241 202.114 120.753 202.015C118.371 201.916 116.784 200.328 116.685 198.145C116.585 195.863 117.975 193.879 120.455 193.78C123.928 193.581 127.4 193.581 130.873 193.78C133.155 193.879 134.644 195.863 134.644 197.947C134.544 200.13 132.858 201.916 130.476 202.015C128.69 202.114 127.004 202.015 125.416 202.015Z" fill="black"/>
<path d="M202.609 124.721C200.922 124.721 199.335 124.82 197.648 124.721C195.465 124.622 193.977 123.034 193.779 120.95C193.58 118.966 194.969 116.783 197.053 116.684C200.823 116.486 204.594 116.386 208.463 116.684C210.646 116.783 211.837 118.867 211.737 120.95C211.638 123.034 210.15 124.622 207.868 124.721C206.082 124.82 204.395 124.721 202.609 124.721Z" fill="black"/>
<path d="M154.488 240.71C152.801 240.71 151.214 240.809 149.527 240.71C147.047 240.512 145.459 238.825 145.459 236.543C145.459 234.36 147.146 232.475 149.527 232.475C152.801 232.376 156.175 232.376 159.449 232.475C161.731 232.574 163.319 234.261 163.319 236.444C163.418 238.626 161.83 240.412 159.647 240.71C157.961 240.809 156.274 240.611 154.488 240.71Z" fill="black"/>
<path d="M193.084 28.28C191.497 28.28 189.909 28.3792 188.421 28.28C185.742 28.0816 184.154 26.3948 184.154 24.1128C184.154 21.7315 185.841 20.0447 188.421 19.9455C191.497 19.8463 194.672 19.8463 197.747 19.9455C200.327 20.0447 202.014 21.7315 202.014 24.1128C202.014 26.2956 200.426 28.0816 197.946 28.28C196.358 28.3792 194.771 28.28 193.084 28.28Z" fill="black"/>
<path d="M241.504 184.056C243.191 184.056 244.778 183.957 246.465 184.056C248.747 184.255 250.334 185.842 250.334 188.025C250.334 190.208 248.945 192.093 246.564 192.192C243.091 192.391 239.619 192.391 236.146 192.192C233.864 192.093 232.276 190.208 232.276 188.025C232.276 185.743 233.963 184.056 236.444 183.957C238.13 184.056 239.817 184.056 241.504 184.056Z" fill="black"/>
<path d="M9.52718 124.721C7.84043 124.721 6.2529 124.82 4.56616 124.721C2.38331 124.622 0.795783 123.034 0.696562 120.951C0.498121 118.867 1.88721 116.783 3.97084 116.684C7.74121 116.387 11.6108 116.387 15.3812 116.684C17.564 116.783 18.7547 118.867 18.6555 120.951C18.5562 123.034 16.9687 124.622 14.7859 124.721C12.9999 124.82 11.3131 124.721 9.52718 124.721Z" fill="black"/>
<path d="M57.9459 124.72C56.2591 124.72 54.6716 124.82 52.9848 124.72C50.7028 124.621 49.016 122.934 48.9168 120.752C48.8176 118.767 50.3059 116.684 52.3895 116.584C56.0607 116.386 59.831 116.386 63.5022 116.584C65.5858 116.684 67.0741 118.767 66.9749 120.752C66.8757 122.934 65.1889 124.522 62.9069 124.621C61.2201 124.82 59.5334 124.72 57.9459 124.72Z" fill="black"/>
<path d="M260.555 124.723C258.868 124.723 257.281 124.822 255.594 124.723C253.312 124.624 251.724 122.838 251.625 120.754C251.526 118.67 252.915 116.785 255.098 116.686C258.769 116.487 262.539 116.487 266.21 116.686C268.393 116.785 269.584 118.67 269.485 120.952C269.386 123.135 267.897 124.524 265.714 124.822C265.516 124.822 265.417 124.822 265.218 124.822C263.73 124.822 262.142 124.822 260.555 124.723C260.555 124.822 260.555 124.822 260.555 124.723Z" fill="black"/>
<path d="M125.713 39.2941C127.301 39.2941 128.888 39.1949 130.377 39.2941C132.659 39.3933 134.345 40.9808 134.445 43.1637C134.544 45.1481 133.254 47.2317 131.071 47.4301C127.301 47.6286 123.53 47.6286 119.76 47.4301C117.577 47.2317 116.386 45.3465 116.585 43.1637C116.783 41.0801 118.272 39.5918 120.454 39.3933C120.653 39.3933 120.752 39.3933 120.951 39.3933C122.538 39.2941 124.126 39.2941 125.713 39.2941Z" fill="black"/>
<path d="M77.3935 126.112C78.981 126.112 80.5686 126.013 82.0569 126.112C84.4382 126.212 85.9265 127.799 86.1249 129.982C86.2241 132.363 84.7358 134.248 82.3545 134.348C78.8818 134.546 75.4091 134.546 71.9364 134.348C69.6543 134.248 68.166 132.264 68.166 130.081C68.2652 127.998 69.8528 126.212 72.1348 126.112C73.9208 126.112 75.7068 126.212 77.3935 126.112Z" fill="black"/>
<path d="M241.503 126.209C243.19 126.209 244.778 126.11 246.464 126.209C248.647 126.408 250.135 127.995 250.334 130.079C250.433 132.262 249.044 134.246 246.861 134.444C243.289 134.643 239.618 134.643 235.947 134.444C233.863 134.345 232.375 132.262 232.375 130.277C232.375 128.194 234.062 126.408 236.344 126.209C236.542 126.209 236.641 126.209 236.84 126.209C238.427 126.11 239.916 126.11 241.503 126.209C241.503 126.11 241.503 126.11 241.503 126.209Z" fill="black"/>
<path d="M9.52593 144.07C7.83918 144.07 6.25166 144.169 4.56491 144.07C2.28284 143.971 0.695312 142.185 0.695312 140.002C0.695312 137.918 2.0844 136.033 4.26725 135.934C7.83918 135.736 11.5103 135.736 15.1815 135.934C17.3643 136.033 18.7534 137.918 18.6542 140.002C18.6542 142.185 17.0667 143.872 14.7846 144.07C12.9986 144.169 11.2127 144.07 9.52593 144.07Z" fill="black"/>
<path d="M144.963 270.974C146.55 270.974 148.138 270.875 149.626 270.974C151.908 271.073 153.595 272.661 153.794 274.744C153.992 276.729 152.603 278.911 150.519 279.011C146.65 279.308 142.78 279.308 139.01 279.011C136.728 278.812 135.636 276.729 135.934 274.446C136.231 272.264 137.621 271.073 139.803 270.974C141.49 270.875 143.276 270.974 144.963 270.974Z" fill="black"/>
<path d="M270.477 184.054C272.163 184.054 273.751 183.955 275.438 184.054C277.72 184.252 279.307 185.939 279.406 188.122C279.406 190.206 278.017 192.091 275.834 192.19C272.263 192.388 268.591 192.388 264.92 192.19C262.638 192.091 261.249 190.106 261.447 187.824C261.547 185.741 263.134 184.153 265.317 184.054C267.004 184.054 268.691 184.054 270.477 184.054Z" fill="black"/>
<path d="M96.6416 39.2941C98.3284 39.2941 99.9159 39.1949 101.603 39.2941C103.786 39.3933 105.274 40.9808 105.472 43.0645C105.571 45.2473 104.381 47.1325 102.198 47.3309C98.4276 47.6286 94.6572 47.5294 90.8868 47.3309C88.8032 47.2317 87.4141 45.0489 87.6126 43.0645C87.811 41.0801 89.3985 39.3933 91.5814 39.2941C93.1689 39.1949 94.9549 39.2941 96.6416 39.2941Z" fill="black"/>
<path d="M193.084 221.362C191.397 221.362 189.809 221.461 188.123 221.362C185.741 221.263 184.055 219.378 184.055 217.195C184.055 214.913 185.741 213.127 188.123 213.028C191.397 212.928 194.671 212.928 197.946 213.028C200.327 213.127 202.014 215.012 202.014 217.195C202.014 219.378 200.327 221.263 197.946 221.362C196.457 221.461 194.77 221.362 193.084 221.362Z" fill="black"/>
<path d="M241.404 230.988C239.717 230.988 238.13 231.087 236.443 230.988C233.963 230.889 232.375 229.103 232.375 226.92C232.375 224.836 233.863 222.951 236.245 222.852C239.717 222.654 243.19 222.654 246.663 222.852C249.044 222.951 250.433 224.836 250.334 227.019C250.235 229.202 248.746 230.889 246.365 230.988C244.778 231.087 243.091 230.988 241.404 230.988Z" fill="black"/>
<path d="M193.084 230.986C191.496 230.986 189.909 231.085 188.421 230.986C185.841 230.886 184.253 229.299 184.154 227.017C184.055 224.735 185.543 222.85 188.024 222.75C191.397 222.552 194.771 222.552 198.144 222.75C200.625 222.85 202.113 224.735 202.014 227.017C201.915 229.299 200.228 230.787 197.747 230.986C197.549 230.986 197.45 230.986 197.251 230.986C195.961 230.986 194.473 230.986 193.084 230.986Z" fill="black"/>
<path d="M270.178 230.988C268.492 230.988 266.904 231.087 265.217 230.988C262.935 230.79 261.348 229.202 261.348 226.92C261.348 224.836 262.638 222.951 264.92 222.852C268.492 222.654 272.163 222.654 275.834 222.852C278.017 222.951 279.406 224.836 279.406 226.92C279.406 229.103 277.818 230.79 275.437 230.889C273.651 231.087 271.964 230.988 270.178 230.988Z" fill="black"/>
<path d="M106.366 77.9894C108.052 77.9894 109.64 77.8902 111.327 77.9894C113.609 78.0886 115.196 79.7754 115.196 81.9582C115.196 84.1411 113.708 86.0262 111.426 86.1255C107.953 86.2247 104.48 86.2247 101.008 86.1255C98.7256 86.0262 97.2373 84.2403 97.2373 81.9582C97.2373 79.6762 98.7256 78.0886 101.107 77.9894C102.893 77.8902 104.58 77.9894 106.366 77.9894Z" fill="black"/>
<path d="M135.338 86.1245C133.652 86.1245 131.866 86.2237 130.179 86.1245C127.798 85.9261 126.111 84.0409 126.21 81.8581C126.309 79.6752 127.897 77.9885 130.278 77.9885C133.553 77.8893 136.926 77.8893 140.2 77.9885C142.582 78.0877 144.07 79.6752 144.169 81.8581C144.268 84.1401 142.681 85.9261 140.3 86.1245C138.613 86.2237 136.926 86.1245 135.338 86.1245Z" fill="black"/>
<path d="M86.8199 211.64C85.2323 211.64 83.6448 211.739 82.1565 211.64C79.676 211.541 78.0885 209.953 77.9893 207.572C77.9893 205.29 79.4776 203.504 81.9581 203.404C85.2323 203.305 88.6058 203.305 91.8801 203.404C94.3606 203.504 95.9482 205.29 95.8489 207.572C95.8489 209.854 94.1622 211.441 91.6817 211.541C90.0942 211.739 88.4074 211.64 86.8199 211.64Z" fill="black"/>
<path d="M241.305 211.64C239.619 211.64 238.031 211.74 236.344 211.64C234.062 211.541 232.475 209.854 232.375 207.672C232.276 205.489 233.864 203.604 236.146 203.504C239.718 203.306 243.29 203.306 246.762 203.504C249.045 203.604 250.434 205.588 250.334 207.771C250.235 209.854 248.747 211.442 246.564 211.541C244.778 211.74 243.091 211.64 241.305 211.64Z" fill="black"/>
<path d="M19.3489 105.373C17.6621 105.373 15.8762 105.472 14.1894 105.373C12.0066 105.274 10.5183 103.686 10.419 101.503C10.3198 99.3203 11.7089 97.3359 13.991 97.2367C17.5629 97.0383 21.1348 97.0383 24.6076 97.2367C26.7904 97.3359 28.3779 99.3203 28.2787 101.404C28.1795 103.587 26.592 105.174 24.3099 105.373C22.7224 105.472 21.0356 105.472 19.3489 105.373C19.3489 105.472 19.3489 105.472 19.3489 105.373Z" fill="black"/>
<path d="M132.064 162.327C131.964 162.625 131.964 163.121 131.766 163.518C130.873 165.899 123.63 169.769 121.149 169.174C119.165 168.677 117.478 167.388 117.577 165.403C117.677 163.915 118.669 162.129 119.859 161.137C121.546 159.748 123.63 158.855 125.713 157.962C128.69 156.573 132.163 158.855 132.064 162.327Z" fill="black"/>
<path d="M170.164 149.527C173.24 149.726 174.927 150.718 175.621 152.901C176.217 154.984 175.423 156.671 173.538 157.763C171.752 158.854 169.966 159.846 168.081 160.739C165.501 161.93 162.624 161.037 161.433 158.755C160.242 156.473 161.135 154.191 163.913 152.702C166.295 151.413 168.577 150.321 170.164 149.527Z" fill="black"/>
<path d="M108.648 130.278C105.473 130.179 103.885 129.187 103.191 127.004C102.595 124.821 103.488 123.134 105.373 122.043C107.06 121.05 108.846 120.058 110.632 119.165C113.212 117.875 116.089 118.868 117.28 121.15C118.371 123.432 117.578 125.615 114.899 127.103C112.617 128.294 110.235 129.484 108.648 130.278Z" fill="black"/>
<path d="M150.618 122.837C148.336 122.737 146.65 121.844 145.955 119.761C145.26 117.578 146.054 115.792 148.039 114.701C149.825 113.609 151.611 112.617 153.496 111.823C156.175 110.633 158.953 111.526 160.044 114.006C161.136 116.288 160.243 118.372 157.564 119.86C155.778 120.852 153.893 121.844 152.107 122.737C151.511 122.737 151.015 122.737 150.618 122.837Z" fill="black"/>
<path d="M24.112 173.142C21.9291 173.142 20.0439 171.256 20.0439 169.073C20.0439 166.791 21.9291 164.906 24.3104 164.906C26.5925 164.906 28.3785 166.692 28.4777 168.974C28.3785 171.157 26.3941 173.142 24.112 173.142Z" fill="black"/>
<path d="M9.02983 168.974C9.02983 171.157 7.14464 173.042 4.96179 173.142C2.67972 173.241 0.695312 171.256 0.695312 168.974C0.695312 166.593 2.5805 164.807 4.96179 164.906C7.14464 164.906 9.02983 166.692 9.02983 168.974Z" fill="black"/>
<path d="M95.8482 265.416C95.8482 267.698 94.0622 269.484 91.8794 269.583C89.4981 269.682 87.5137 267.797 87.5137 265.515C87.5137 263.233 89.4981 261.348 91.7802 261.348C94.0622 261.348 95.8482 263.233 95.8482 265.416Z" fill="black"/>
<path d="M140.1 213.029C142.382 213.029 144.267 215.014 144.168 217.395C144.069 219.677 142.184 221.463 140.001 221.364C137.619 221.364 135.933 219.379 135.933 216.998C136.032 214.716 137.818 212.93 140.1 213.029Z" fill="black"/>
<path d="M86.2232 72.3336C86.2232 74.6157 84.5364 76.5009 82.2544 76.6001C79.8731 76.6993 77.9879 74.9134 77.8887 72.5321C77.8887 70.25 79.7739 68.2656 82.0559 68.2656C84.338 68.2656 86.124 70.0516 86.2232 72.3336Z" fill="black"/>
<path d="M275.239 261.347C277.521 261.347 279.307 263.233 279.307 265.415C279.307 267.697 277.422 269.583 275.041 269.583C272.759 269.583 270.973 267.697 270.973 265.515C270.973 263.233 272.957 261.248 275.239 261.347Z" fill="black"/>
<path d="M178.5 57.1529C176.317 57.1529 174.432 55.2677 174.432 53.0849C174.432 50.8028 176.416 48.8184 178.698 48.9176C180.98 49.0169 182.865 51.0013 182.766 53.2833C182.667 55.5654 180.782 57.2521 178.5 57.1529Z" fill="black"/>
<path d="M217.095 126.211C219.278 126.112 221.263 127.898 221.362 130.081C221.461 132.363 219.576 134.446 217.294 134.446C215.012 134.545 213.027 132.462 213.027 130.279C213.027 128.096 214.913 126.211 217.095 126.211Z" fill="black"/>
<path d="M105.473 217.194C105.473 219.476 103.687 221.361 101.504 221.361C99.2217 221.461 97.2373 219.575 97.2373 217.194C97.2373 214.813 99.1225 212.928 101.405 212.928C103.687 213.027 105.473 214.912 105.473 217.194Z" fill="black"/>
<path d="M197.946 37.9048C195.565 37.9048 193.68 35.9204 193.779 33.6383C193.878 31.4555 195.764 29.5703 197.946 29.5703C200.228 29.5703 202.114 31.5547 202.014 33.936C202.014 36.1188 200.228 37.9048 197.946 37.9048Z" fill="black"/>
<path d="M62.8075 174.332C65.0896 174.431 66.9748 176.515 66.8756 178.698C66.7763 180.881 64.8912 182.667 62.6091 182.667C60.2278 182.667 58.4418 180.682 58.541 178.301C58.7395 176.217 60.7239 174.332 62.8075 174.332Z" fill="black"/>
<path d="M207.273 182.666C204.892 182.567 203.205 180.583 203.404 178.201C203.602 176.019 205.586 174.233 207.769 174.431C209.952 174.63 211.738 176.515 211.639 178.797C211.639 181.079 209.654 182.865 207.273 182.666Z" fill="black"/>
<path d="M182.766 197.847C182.766 200.228 180.88 202.113 178.598 202.014C176.415 201.915 174.53 200.029 174.53 197.847C174.53 195.564 176.515 193.58 178.797 193.58C180.88 193.779 182.766 195.664 182.766 197.847Z" fill="black"/>
<path d="M62.7087 202.016C60.3274 202.016 58.5414 200.032 58.6407 197.65C58.7399 195.467 60.6251 193.582 62.8079 193.681C65.09 193.681 67.0744 195.765 66.876 198.047C66.7767 200.23 64.8915 202.115 62.7087 202.016Z" fill="black"/>
<path d="M81.9567 87.5157C84.2388 87.4164 86.0247 89.2024 86.124 91.4845C86.2232 93.8657 84.4372 95.8501 82.1552 95.9494C79.8731 96.0486 77.8887 94.0642 77.8887 91.7821C77.9879 89.4008 79.7739 87.6149 81.9567 87.5157Z" fill="black"/>
<path d="M198.046 48.9178C200.328 49.017 202.213 51.0014 202.114 53.2835C202.015 55.5656 200.129 57.2523 197.847 57.2523C195.466 57.2523 193.68 55.1687 193.779 52.8866C193.879 50.7038 195.863 48.8186 198.046 48.9178Z" fill="black"/>
<path d="M47.6267 149.725C47.5275 151.908 45.5431 153.793 43.4595 153.793C41.1774 153.793 39.2922 151.809 39.3914 149.527C39.4907 147.146 41.4751 145.36 43.7571 145.558C45.94 145.657 47.726 147.542 47.6267 149.725Z" fill="black"/>
<path d="M149.527 48.9176C151.809 48.8184 153.793 50.8028 153.793 53.0849C153.793 55.2677 151.908 57.1529 149.725 57.1529C147.344 57.2521 145.459 55.3669 145.459 52.9857C145.459 50.8028 147.344 48.9176 149.527 48.9176Z" fill="black"/>
<path d="M279.307 140.001C279.307 142.184 277.521 144.069 275.239 144.069C272.858 144.069 270.973 142.283 270.973 139.902C270.973 137.719 272.759 135.834 275.041 135.834C277.422 135.834 279.307 137.62 279.307 140.001Z" fill="black"/>
<path d="M76.5005 149.626C76.5005 151.908 74.5161 153.893 72.2341 153.793C70.0512 153.694 68.166 151.809 68.166 149.626C68.166 147.344 70.1504 145.459 72.4325 145.459C74.8138 145.558 76.5998 147.344 76.5005 149.626Z" fill="black"/>
<path d="M81.9578 8.93083C79.6757 8.93083 77.7905 6.94643 77.989 4.56515C78.0882 2.28309 79.9734 0.596346 82.2555 0.695566C84.6367 0.794786 86.3235 2.67997 86.2243 5.06125C86.0258 7.24409 84.2399 9.03005 81.9578 8.93083Z" fill="black"/>
<path d="M279.307 130.277C279.307 132.459 277.422 134.345 275.239 134.444C272.957 134.543 270.973 132.559 270.973 130.277C270.973 128.094 272.759 126.209 275.041 126.109C277.323 126.109 279.307 127.995 279.307 130.277Z" fill="black"/>
<path d="M47.6275 130.177C47.7267 132.36 45.8416 134.344 43.6587 134.444C41.3766 134.642 39.3922 132.757 39.293 130.376C39.1938 128.094 40.9798 126.208 43.1626 126.109C45.5439 126.01 47.5283 127.895 47.6275 130.177Z" fill="black"/>
<path d="M115.196 24.0126C115.196 26.1955 113.41 28.0806 111.227 28.1799C108.945 28.2791 106.961 26.3939 106.961 24.0126C106.961 21.7305 108.846 19.7461 111.227 19.8454C113.311 19.9446 115.196 21.8298 115.196 24.0126Z" fill="black"/>
<path d="M134.544 24.2116C134.544 26.3945 132.659 28.2796 130.476 28.2796C128.194 28.2796 126.21 26.2952 126.21 24.0132C126.21 21.7311 128.294 19.8459 130.576 19.9452C132.759 20.0444 134.544 21.9296 134.544 24.2116Z" fill="black"/>
<path d="M4.96182 174.431C7.24389 174.531 9.12908 176.614 9.02986 178.896C8.83142 181.178 6.94623 182.865 4.76338 182.766C2.38209 182.667 0.596126 180.682 0.695347 178.4C0.794567 176.217 2.77898 174.332 4.96182 174.431Z" fill="black"/>
<path d="M76.6001 111.031C76.6001 113.313 74.6157 115.297 72.3337 115.198C70.1508 115.099 68.2656 113.114 68.2656 111.031C68.2656 108.748 70.25 106.863 72.5321 106.863C74.8142 106.963 76.6001 108.748 76.6001 111.031Z" fill="black"/>
<path d="M260.058 178.698C260.058 180.98 257.975 182.865 255.692 182.766C253.51 182.666 251.724 180.781 251.724 178.598C251.724 176.416 253.708 174.53 255.891 174.431C258.074 174.332 260.058 176.416 260.058 178.698Z" fill="black"/>
<path d="M101.305 68.168C103.488 68.168 105.373 69.9539 105.473 72.1368C105.572 74.5181 103.786 76.4032 101.405 76.5025C99.1225 76.5025 97.3365 74.8157 97.2373 72.5337C97.2373 70.1524 99.0233 68.2672 101.305 68.168Z" fill="black"/>
<path d="M47.6275 91.5835C47.7267 93.7663 45.8416 95.7507 43.6587 95.85C41.3766 95.9492 39.3922 94.064 39.293 91.7819C39.1938 89.4999 40.9798 87.6147 43.1626 87.5155C45.5439 87.4162 47.5283 89.3014 47.6275 91.5835Z" fill="black"/>
<path d="M221.363 188.322C221.263 190.505 219.378 192.39 217.195 192.39C214.913 192.39 212.929 190.307 213.028 188.124C213.127 185.842 215.112 183.957 217.493 184.155C219.676 184.254 221.462 186.139 221.363 188.322Z" fill="black"/>
<path d="M4.76319 193.681C7.04526 193.582 9.02967 195.666 9.02967 197.948C9.02967 200.13 7.14448 202.016 4.96163 202.115C2.77878 202.115 0.794373 200.329 0.695152 198.146C0.595932 195.864 2.48112 193.78 4.76319 193.681Z" fill="black"/>
<path d="M197.947 192.391C195.664 192.391 193.879 190.506 193.779 188.323C193.779 186.041 195.764 184.057 198.046 184.156C200.328 184.255 202.114 186.14 202.015 188.323C202.015 190.605 200.129 192.391 197.947 192.391Z" fill="black"/>
<path d="M198.046 269.583C195.664 269.583 193.779 267.797 193.779 265.416C193.779 263.233 195.664 261.347 197.847 261.347C200.229 261.248 202.114 263.133 202.114 265.515C202.015 267.797 200.328 269.583 198.046 269.583Z" fill="black"/>
<path d="M120.752 261.348C123.034 261.348 124.82 263.134 124.82 265.515C124.82 267.995 123.034 269.682 120.554 269.682C118.272 269.583 116.585 267.797 116.585 265.416C116.684 263.034 118.47 261.348 120.752 261.348Z" fill="black"/>
<path d="M9.02986 188.123C9.12908 190.305 7.34312 192.191 5.06105 192.389C2.77898 192.488 0.695349 190.603 0.695349 188.321C0.596128 186.138 2.3821 184.154 4.66416 184.055C6.94623 183.955 8.93064 185.84 9.02986 188.123Z" fill="black"/>
<path d="M255.792 97.2383C258.173 97.2383 260.059 99.1235 259.959 101.406C259.86 103.588 258.074 105.374 255.792 105.374C253.411 105.374 251.526 103.489 251.625 101.207C251.724 99.0242 253.609 97.2383 255.792 97.2383Z" fill="black"/>
<path d="M43.4603 182.666C41.1782 182.666 39.3922 180.88 39.3922 178.598C39.293 176.316 41.2774 174.232 43.5595 174.332C45.7423 174.332 47.826 176.415 47.7268 178.697C47.5283 180.88 45.6431 182.765 43.4603 182.666Z" fill="black"/>
<path d="M28.2788 178.698C28.2788 180.98 26.2944 182.865 23.9132 182.766C21.7303 182.666 19.9443 180.781 19.9443 178.598C19.9443 176.416 21.9287 174.53 24.1116 174.431C26.2944 174.332 28.3781 176.416 28.2788 178.698Z" fill="black"/>
<path d="M111.028 240.71C108.846 240.71 106.96 238.924 106.861 236.741C106.762 234.459 108.647 232.475 111.028 232.475C113.211 232.475 115.096 234.261 115.196 236.443C115.295 238.725 113.41 240.611 111.028 240.71Z" fill="black"/>
<path d="M159.548 0.696689C161.83 0.795909 163.616 2.87953 163.417 5.26081C163.219 7.44365 161.234 9.22961 159.051 9.03117C156.769 8.83273 155.083 6.94755 155.182 4.76471C155.281 2.28421 157.266 0.498249 159.548 0.696689Z" fill="black"/>
<path d="M197.946 126.109C200.228 126.109 202.113 128.094 202.113 130.376C202.014 132.559 200.129 134.444 197.946 134.444C195.664 134.444 193.68 132.459 193.779 130.177C193.878 127.995 195.763 126.109 197.946 126.109Z" fill="black"/>
<path d="M33.8351 163.418C31.4538 163.418 29.5686 161.533 29.6678 159.251C29.6678 157.068 31.553 155.183 33.7358 155.084C36.0179 155.084 37.9031 156.969 37.9031 159.35C37.9031 161.633 36.1171 163.418 33.8351 163.418Z" fill="black"/>
<path d="M279.307 207.47C279.307 209.653 277.62 211.538 275.338 211.637C272.957 211.737 271.072 209.951 270.973 207.569C270.973 205.387 272.759 203.501 274.941 203.402C277.323 203.303 279.307 205.188 279.307 207.47Z" fill="black"/>
<path d="M255.891 144.069C253.509 144.069 251.624 142.184 251.723 139.902C251.723 137.719 253.609 135.834 255.891 135.834C258.272 135.834 260.157 137.719 260.157 140.001C259.959 142.283 258.173 144.069 255.891 144.069Z" fill="black"/>
<path d="M57.2512 168.875C57.3504 171.256 55.366 173.141 53.0839 173.141C50.9011 173.141 49.0159 171.256 48.9167 169.073C48.8174 166.791 50.8018 164.807 53.1831 164.807C55.4652 164.807 57.1519 166.493 57.2512 168.875Z" fill="black"/>
<path d="M72.4331 173.141C70.2503 173.141 68.2659 171.256 68.1667 169.073C68.0674 166.692 70.0518 164.807 72.4331 164.807C74.7152 164.807 76.5012 166.593 76.5012 168.875C76.5012 171.157 74.7152 173.042 72.4331 173.141Z" fill="black"/>
<path d="M198.046 155.084C200.328 155.183 202.213 157.267 202.114 159.549C202.014 161.831 200.129 163.518 197.847 163.418C195.565 163.319 193.68 161.335 193.779 159.053C193.878 156.87 195.962 154.985 198.046 155.084Z" fill="black"/>
<path d="M217.195 213.029C219.378 213.029 221.362 214.815 221.462 216.998C221.561 219.28 219.676 221.364 217.393 221.364C215.211 221.364 213.226 219.479 213.127 217.395C212.929 215.212 214.913 213.029 217.195 213.029Z" fill="black"/>
<path d="M124.82 52.986C124.82 55.2681 123.134 57.1532 120.851 57.2525C118.569 57.3517 116.684 55.5657 116.585 53.2837C116.486 50.9024 118.272 48.918 120.653 48.918C122.935 48.918 124.721 50.7039 124.82 52.986Z" fill="black"/>
<path d="M202.114 62.7087C202.114 64.9907 200.328 66.7767 198.046 66.8759C195.664 66.8759 193.779 64.9907 193.779 62.6094C193.879 60.3274 195.664 58.6406 198.046 58.6406C200.328 58.6406 202.114 60.4266 202.114 62.7087Z" fill="black"/>
<path d="M134.544 72.3352C134.544 74.6173 132.56 76.6017 130.278 76.5025C128.095 76.4032 126.21 74.6173 126.21 72.3352C126.21 70.1524 128.095 68.168 130.278 68.168C132.461 68.168 134.544 70.0532 134.544 72.3352Z" fill="black"/>
<path d="M4.76394 95.85C2.48187 95.85 0.59668 93.7663 0.59668 91.4843C0.6959 89.3014 2.58109 87.4162 4.76394 87.5155C7.04601 87.5155 9.03041 89.5991 8.93119 91.8812C8.93119 94.064 6.94679 95.9492 4.76394 95.85Z" fill="black"/>
<path d="M24.0133 87.5157C26.1962 87.4164 28.1806 89.2024 28.2798 91.3852C28.379 93.6673 26.4939 95.7509 24.2118 95.8501C21.9297 95.9494 19.9453 93.965 19.9453 91.6829C19.9453 89.5001 21.8305 87.6149 24.0133 87.5157Z" fill="black"/>
<path d="M202.114 110.931C202.114 113.213 200.129 115.197 197.947 115.197C195.764 115.197 193.879 113.213 193.779 111.03C193.779 108.748 195.764 106.764 198.046 106.863C200.229 106.863 202.015 108.748 202.114 110.931Z" fill="black"/>
<path d="M173.141 226.721C173.24 228.904 171.355 230.888 169.172 230.987C166.89 231.086 165.005 229.4 164.905 227.118C164.806 224.736 166.592 222.752 168.973 222.752C171.156 222.752 173.141 224.538 173.141 226.721Z" fill="black"/>
<path d="M240.71 120.554C240.71 122.836 239.023 124.622 236.741 124.721C234.359 124.82 232.375 122.935 232.375 120.653C232.375 118.371 234.26 116.387 236.641 116.486C238.824 116.585 240.71 118.371 240.71 120.554Z" fill="black"/>
<path d="M230.986 159.35C230.986 161.632 229.101 163.418 226.819 163.418C224.537 163.418 222.751 161.632 222.751 159.35C222.751 156.969 224.735 154.984 227.017 155.084C229.2 155.183 231.085 157.068 230.986 159.35Z" fill="black"/>
<path d="M140.001 10.3203C142.283 10.3203 144.069 12.1063 144.168 14.3883C144.268 16.7696 142.382 18.6548 140.001 18.6548C137.719 18.6548 136.032 16.8688 136.032 14.4876C135.933 12.1063 137.719 10.3203 140.001 10.3203Z" fill="black"/>
<path d="M163.417 62.7086C163.417 64.9907 161.73 66.8759 159.448 66.8759C157.067 66.9751 155.182 64.9907 155.182 62.7086C155.182 60.4266 157.067 58.6406 159.349 58.6406C161.631 58.6406 163.417 60.3274 163.417 62.7086Z" fill="black"/>
<path d="M53.1835 192.389C50.9014 192.389 48.917 190.405 48.917 188.123C49.0162 185.94 50.9014 184.055 53.0843 184.055C55.4655 184.055 57.2515 185.94 57.2515 188.321C57.1523 190.603 55.3663 192.389 53.1835 192.389Z" fill="black"/>
<path d="M105.473 62.7083C105.473 64.9903 103.687 66.7763 101.405 66.7763C99.0233 66.7763 97.2373 64.8911 97.2373 62.5098C97.3365 60.2278 99.0233 58.541 101.405 58.541C103.786 58.6402 105.473 60.4262 105.473 62.7083Z" fill="black"/>
<path d="M86.2244 62.8079C86.2244 65.0899 84.4384 66.8759 82.1564 66.8759C79.7751 66.8759 77.8899 64.9907 77.9891 62.6094C78.0883 60.3274 79.8743 58.6406 82.2556 58.6406C84.5376 58.6406 86.2244 60.4266 86.2244 62.8079Z" fill="black"/>
<path d="M178.697 39.293C180.979 39.3922 182.765 41.0789 182.765 43.4602C182.765 45.7423 180.88 47.6275 178.697 47.6275C176.415 47.6275 174.431 45.6431 174.53 43.361C174.53 41.0789 176.514 39.293 178.697 39.293Z" fill="black"/>
<path d="M101.504 29.5702C103.786 29.6694 105.572 31.6538 105.473 34.0351C105.374 36.3171 103.588 38.0039 101.206 37.9046C98.8251 37.8054 97.1383 35.9202 97.2376 33.539C97.3368 31.3561 99.3212 29.4709 101.504 29.5702Z" fill="black"/>
<path d="M250.334 168.873C250.334 171.155 248.647 173.041 246.365 173.14C244.083 173.239 242.099 171.255 242.099 168.973C242.099 166.691 243.984 164.905 246.266 164.905C248.548 164.805 250.334 166.492 250.334 168.873Z" fill="black"/>
<path d="M265.514 173.141C263.232 173.141 261.446 171.256 261.446 168.974C261.446 166.593 263.331 164.807 265.713 164.807C267.995 164.906 269.682 166.692 269.582 169.073C269.582 171.355 267.697 173.141 265.514 173.141Z" fill="black"/>
<path d="M62.9065 77.9885C65.1886 77.9885 66.9746 79.8737 66.9746 82.0566C66.9746 84.3386 64.9902 86.2238 62.7081 86.2238C60.426 86.1246 58.7393 84.3386 58.7393 82.0566C58.6401 79.5761 60.426 77.8893 62.9065 77.9885Z" fill="black"/>
<path d="M226.819 164.807C229.101 164.807 230.887 166.493 230.986 168.875C230.986 171.256 229.101 173.141 226.72 173.141C224.438 173.042 222.652 171.157 222.751 168.974C222.85 166.593 224.537 164.807 226.819 164.807Z" fill="black"/>
<path d="M178.698 66.8759C176.416 66.8759 174.432 64.9907 174.432 62.7087C174.432 60.5258 176.317 58.7398 178.5 58.6406C180.782 58.6406 182.568 60.2281 182.667 62.5102C182.865 64.8915 181.079 66.7767 178.698 66.8759Z" fill="black"/>
<path d="M144.168 62.7087C144.168 64.9907 142.382 66.7767 140.1 66.8759C137.719 66.8759 135.933 65.0899 135.933 62.6094C136.032 60.2281 137.719 58.6406 140.1 58.6406C142.382 58.6406 144.168 60.4266 144.168 62.7087Z" fill="black"/>
<path d="M246.266 261.348C248.548 261.348 250.334 263.134 250.334 265.416C250.334 267.698 248.647 269.484 246.365 269.583C243.984 269.682 242.099 267.698 242.099 265.416C242.099 263.134 243.984 261.348 246.266 261.348Z" fill="black"/>
<path d="M226.72 135.834C229.002 135.735 230.887 137.422 230.986 139.704C231.085 142.085 229.2 143.97 226.819 143.97C224.537 143.97 222.751 142.184 222.751 139.902C222.751 137.719 224.438 135.933 226.72 135.834Z" fill="black"/>
<path d="M86.1253 14.4891C86.1253 16.7712 84.3394 18.5571 82.0573 18.5571C79.7752 18.5571 77.9893 16.7712 77.9893 14.4891C77.9893 12.1078 79.8744 10.2227 82.2557 10.2227C84.4386 10.3219 86.2246 12.2071 86.1253 14.4891Z" fill="black"/>
<path d="M120.554 58.6409C122.935 58.5417 124.721 60.2284 124.721 62.5105C124.82 64.991 123.034 66.8761 120.653 66.7769C118.371 66.7769 116.585 64.991 116.585 62.7089C116.585 60.4268 118.272 58.6409 120.554 58.6409Z" fill="black"/>
<path d="M81.8591 192.389C79.577 192.289 77.8903 190.305 77.9895 188.023C78.0887 185.642 80.0731 183.856 82.4544 184.054C84.7365 184.253 86.324 186.138 86.1256 188.519C86.0264 190.801 84.042 192.488 81.8591 192.389Z" fill="black"/>
<path d="M226.819 261.348C229.101 261.348 230.887 263.134 230.986 265.416C231.085 267.698 229.3 269.583 227.017 269.583C224.537 269.682 222.751 267.896 222.751 265.416C222.751 263.134 224.537 261.348 226.819 261.348Z" fill="black"/>
<path d="M182.766 82.0577C182.766 84.439 180.881 86.225 178.5 86.1257C176.317 86.0265 174.432 84.1413 174.432 81.9585C174.432 79.6764 176.317 77.7912 178.797 77.8905C181.079 77.9897 182.766 79.7756 182.766 82.0577Z" fill="black"/>
<path d="M81.9567 77.9883C84.338 77.9883 86.124 79.5758 86.124 81.9571C86.2232 84.3384 84.338 86.2235 81.9567 86.2235C79.6746 86.2235 77.8887 84.4376 77.8887 82.1555C77.8887 79.7742 79.6746 77.9883 81.9567 77.9883Z" fill="black"/>
<path d="M124.82 14.3899C124.82 16.7712 123.134 18.4579 120.852 18.5571C118.47 18.5571 116.585 16.7712 116.684 14.2907C116.684 12.0086 118.57 10.2227 120.852 10.2227C122.935 10.3219 124.721 12.1078 124.82 14.3899Z" fill="black"/>
<path d="M120.653 211.638C118.272 211.638 116.585 209.951 116.585 207.57C116.585 205.089 118.371 203.303 120.851 203.402C123.134 203.502 124.82 205.188 124.82 207.57C124.721 209.951 123.034 211.638 120.653 211.638Z" fill="black"/>
<path d="M139.902 222.752C142.184 222.752 144.069 224.439 144.069 226.721C144.169 229.102 142.283 230.987 139.902 230.987C137.62 230.987 135.834 229.3 135.834 226.919C135.933 224.538 137.62 222.752 139.902 222.752Z" fill="black"/>
<path d="M226.919 105.474C224.537 105.474 222.851 103.787 222.851 101.406C222.851 99.1235 224.537 97.3375 226.819 97.2383C229.201 97.2383 231.086 99.0242 231.086 101.406C230.987 103.688 229.201 105.474 226.919 105.474Z" fill="black"/>
<path d="M48.1233 48.2236C40.9795 48.2236 34.2325 48.3228 27.4855 48.1244C23.0206 48.0252 19.5479 44.354 19.4486 39.8891C19.2502 35.7219 19.2502 31.6539 19.4486 27.4866C19.6471 23.2202 22.8221 19.7475 27.0886 19.4498C31.6527 19.1521 36.2169 19.1521 40.6818 19.4498C44.4522 19.6482 47.9249 22.9225 48.1233 26.5937C48.3218 33.7375 48.1233 40.8813 48.1233 48.2236Z" fill="black"/>
<path d="M260.554 48.1242C253.311 48.1242 246.365 48.3226 239.519 48.025C235.054 47.8265 231.879 43.957 231.879 39.4921C231.78 35.7217 231.78 31.8521 231.879 28.0818C231.978 23.3192 235.253 19.6481 240.015 19.4496C244.182 19.2512 248.449 19.2512 252.616 19.4496C256.883 19.6481 260.455 23.1208 260.554 27.288C260.752 34.1342 260.554 40.9804 260.554 48.1242Z" fill="black"/>
<path d="M48.1237 260.454C40.8806 260.454 33.836 260.653 26.6921 260.355C22.6241 260.157 19.5482 256.386 19.3498 252.219C19.2506 248.151 19.2506 244.083 19.3498 240.114C19.5482 235.451 23.2194 231.879 27.8828 231.879C31.7524 231.78 35.622 231.78 39.4915 231.879C43.758 231.978 47.7268 234.955 47.9253 239.122C48.4214 246.167 48.1237 253.211 48.1237 260.454Z" fill="black"/>
</g>
<defs>
<clipPath id="clip0_3749_15897">
<rect width="280" height="279.999" fill="white"/>
</clipPath>
</defs>
</svg>
